<?xml version="1.0" standalone="no"?><!DOCTYPE svg PUBLIC "-//W3C//DTD SVG 1.1//EN" "http://www.w3.org/Graphics/SVG/1.1/DTD/svg11.dtd"><svg t="1649839234097" class="icon" viewBox="0 0 1024 1024" version="1.1" xmlns="http://www.w3.org/2000/svg" p-id="7973" xmlns:xlink="http://www.w3.org/1999/xlink" width="200" height="200"><defs><style type="text/css">@font-face { font-family: feedback-iconfont; src: url("//at.alicdn.com/t/font_1031158_u69w8yhxdu.woff2?t=1630033759944") format("woff2"), url("//at.alicdn.com/t/font_1031158_u69w8yhxdu.woff?t=1630033759944") format("woff"), url("//at.alicdn.com/t/font_1031158_u69w8yhxdu.ttf?t=1630033759944") format("truetype"); }
</style></defs><path d="M188.672 608H160a32 32 0 0 1-32-32V160a32 32 0 0 1 32-32h416a32 32 0 0 1 32 32v221.44a32 32 0 1 0 64 0V160a96 96 0 0 0-96-96H160a96 96 0 0 0-96 96v416a96 96 0 0 0 96 96h28.672a32 32 0 0 0 0-64z" fill="#1C1C1E" p-id="7974"></path><path d="M448 501.856V448a32 32 0 0 1 32-32h416a32 32 0 0 1 32 32v416a32 32 0 0 1-32 32H480a32 32 0 0 1-32-32v-221.44a32 32 0 1 0-64 0V864a96 96 0 0 0 96 96h416a96 96 0 0 0 96-96V448a96 96 0 0 0-96-96H480a96 96 0 0 0-96 96v53.856a32 32 0 0 0 64 0z" fill="#1C1C1E" p-id="7975"></path><path d="M608 522.592V576a32 32 0 0 1-32 32H160a32 32 0 0 0 0 64h416a96 96 0 0 0 96-96v-53.408a32 32 0 0 0-64 0z" fill="#FAAC08" p-id="7976"></path></svg>