<?xml version="1.0" standalone="no"?><!DOCTYPE svg PUBLIC "-//W3C//DTD SVG 1.1//EN" "http://www.w3.org/Graphics/SVG/1.1/DTD/svg11.dtd"><svg t="1649838638494" class="icon" viewBox="0 0 1024 1024" version="1.1" xmlns="http://www.w3.org/2000/svg" p-id="6507" xmlns:xlink="http://www.w3.org/1999/xlink" width="200" height="200"><defs><style type="text/css">@font-face { font-family: feedback-iconfont; src: url("//at.alicdn.com/t/font_1031158_u69w8yhxdu.woff2?t=1630033759944") format("woff2"), url("//at.alicdn.com/t/font_1031158_u69w8yhxdu.woff?t=1630033759944") format("woff"), url("//at.alicdn.com/t/font_1031158_u69w8yhxdu.ttf?t=1630033759944") format("truetype"); }
</style></defs><path d="M491.52 573.44a40.96 40.96 0 0 1-40.96-40.96V245.76a40.96 40.96 0 0 1 81.92 0v245.76h122.88a40.96 40.96 0 0 1 0 81.92h-163.84z m483.51232 102.11328a40.83712 40.83712 0 0 1-40.63232 37.7856 46.71488 46.71488 0 0 1-40.61184-43.64288S921.6 632.09472 921.6 512a409.6 409.6 0 1 0-409.6 409.6c119.84896 0 163.84-30.86336 163.84-30.86336 3.072-1.92512 54.784-12.88192 45.81376 40.46848A56.89344 56.89344 0 0 1 675.84 974.9504a493.1584 493.1584 0 1 1 299.19232-299.39712z m-98.304 66.21184a40.96 40.96 0 1 1-40.96 40.96 40.96 40.96 0 0 1 41.04192-40.96z" p-id="6508"></path></svg>